<svg width="1200" height="600" viewBox="0 0 1200 600" fill="none" xmlns="http://www.w3.org/2000/svg">
<rect width="1200" height="600" fill="url(#paint0_linear)"/>
<path d="M557.156 32.2812C557.156 32.2812 556.396 32.2812 554.875 32.2812C554.146 32.2812 553.385 32.2604 552.594 32.2188L551.906 70.6875H556.062L557.156 32.2812ZM544.344 28.125C548.469 28.7083 552.396 29 556.125 29C559.854 29 562.76 28.8958 564.844 28.6875H564.969C565.448 28.6875 565.844 28.8542 566.156 29.1875C566.469 29.5208 566.625 29.9062 566.625 30.3438C566.625 30.7604 566.479 31.125 566.188 31.4375C565.896 31.7292 565.448 31.9062 564.844 31.9688C563.76 32.0729 562.281 32.1771 560.406 32.2812L559.406 70.8125C560.594 70.8958 562.229 71.0208 564.312 71.1875C565.292 71.3958 565.781 71.9896 565.781 72.9688C565.74 73.4271 565.552 73.7812 565.219 74.0312C564.906 74.3021 564.542 74.4375 564.125 74.4375H564C557.354 73.7708 550.781 73.7708 544.281 74.4375H544.156C543.677 74.4375 543.281 74.2812 542.969 73.9688C542.656 73.6354 542.5 73.2604 542.5 72.8438C542.5 72.4271 542.635 72.0625 542.906 71.75C543.198 71.4375 543.635 71.25 544.219 71.1875C544.823 71.125 545.51 71.0625 546.281 71C547.073 70.9375 547.854 70.875 548.625 70.8125L549.344 31.9375C547.552 31.8125 545.74 31.625 543.906 31.375C543.49 31.3125 543.146 31.125 542.875 30.8125C542.625 30.5 542.5 30.1146 542.5 29.6562C542.5 29.1979 542.688 28.8333 543.062 28.5625C543.438 28.2708 543.802 28.125 544.156 28.125H544.344ZM592.438 32.5312C592.438 32.5312 590.938 32.5104 587.938 32.4688L587.25 71C587.604 70.9583 587.958 70.9375 588.312 70.9375C588.979 70.9375 589.573 70.9375 590.094 70.9375C590.615 70.9375 591.052 70.9583 591.406 71L592.438 32.5312ZM574.5 28.375C578.833 28.9583 584.5 29.25 591.5 29.25C598.5 29.25 603.292 29.1458 605.875 28.9375H606C606.375 28.9375 606.719 29.0729 607.031 29.3438C607.344 29.5938 607.51 29.8229 607.531 30.0312C607.573 30.2188 607.625 30.4792 607.688 30.8125C607.75 31.1458 607.833 31.5938 607.938 32.1562C608.042 32.7188 608.167 33.3646 608.312 34.0938C608.479 34.8229 608.656 35.5833 608.844 36.375C609.323 38.3333 609.76 39.8646 610.156 40.9688L610.219 41.5C610.219 41.9375 610.042 42.3229 609.688 42.6562C609.354 42.9896 609 43.1562 608.625 43.1562C607.833 43.1562 607.302 42.7708 607.031 42C605.948 38.8542 605.156 35.6354 604.656 32.3438C602.281 32.4688 599.292 32.5312 595.688 32.5312L594.656 71.125C598.26 71.25 600.229 71.5104 600.562 71.9062C600.896 72.2812 601.062 72.7083 601.062 73.1875C601.062 73.6458 600.885 74.0208 600.531 74.3125C600.198 74.625 599.844 74.7812 599.469 74.7812H599.281C596.406 74.4271 593.094 74.25 589.344 74.25C585.594 74.25 582.354 74.4271 579.625 74.7812H579.438C578.979 74.7812 578.583 74.6042 578.25 74.25C577.938 73.8958 577.781 73.5104 577.781 73.0938C577.781 72.6771 577.917 72.3125 578.188 72C578.625 71.5625 580.552 71.2708 583.969 71.125L584.688 32.3438C581.396 32.2188 578.344 32.0417 575.531 31.8125C575.406 32.375 575.25 33.0625 575.062 33.875C574.896 34.6875 574.708 35.5521 574.5 36.4688C573.833 39.1771 573.406 40.8542 573.219 41.5C572.885 42.6042 572.333 43.1562 571.562 43.1562C571.083 43.1562 570.688 42.9896 570.375 42.6562C570.062 42.3021 569.906 42 569.906 41.75V41.25C569.906 41.1667 569.99 40.8333 570.156 40.25C570.344 39.6667 570.594 38.7188 570.906 37.4062C571.219 36.0938 571.5 34.8646 571.75 33.7188C572.354 31.1146 572.656 29.7604 572.656 29.6562C572.885 28.8021 573.417 28.375 574.25 28.375H574.5ZM628.281 32.9062C621.115 36.4479 617.531 43.0208 617.531 52.625C617.531 59.0417 619.396 63.9062 623.125 67.2188C624.354 68.3229 625.812 69.3229 627.5 70.2188C623.958 65.9271 622.188 59.6771 622.188 51.4688C622.188 43.3229 624.219 37.1354 628.281 32.9062ZM638.125 27.4062C643.938 27.4062 648.552 29.4375 651.969 33.5L653.688 28.5625C653.958 27.7917 654.396 27.4062 655 27.4062C655.604 27.4062 656.062 27.5833 656.375 27.9375C656.708 28.2708 656.875 28.5938 656.875 28.9062C656.875 29.1979 656.833 29.4271 656.75 29.5938L651.781 44.125C651.573 44.8333 651.135 45.1875 650.469 45.1875C649.823 45.1875 649.344 45.0104 649.031 44.6562C648.719 44.3021 648.562 44 648.562 43.75C648.562 43.4792 648.604 43.2604 648.688 43.0938L650.688 37.25C648.917 34.4167 646.552 32.4792 643.594 31.4375C642.615 31.1042 641.396 30.9375 639.938 30.9375C638.5 30.9375 637.031 31.2292 635.531 31.8125C634.052 32.3958 632.75 33.1875 631.625 34.1875C630.521 35.1875 629.573 36.3646 628.781 37.7188C627.99 39.0521 627.354 40.4792 626.875 42C625.938 44.875 625.469 48.0312 625.469 51.4688C625.469 56.5312 626.26 60.9792 627.844 64.8125C629.073 67.7708 630.812 69.875 633.062 71.125C634.229 71.7708 635.646 72.0938 637.312 72.0938C639 72.0938 640.656 71.8333 642.281 71.3125C643.927 70.7917 645.417 70.0417 646.75 69.0625C649.562 67.0417 651.531 64.375 652.656 61.0625C652.885 60.2083 653.323 59.7812 653.969 59.7812C654.615 59.7812 655.094 59.9583 655.406 60.3125C655.719 60.6667 655.875 61.0521 655.875 61.4688V61.8438C655.854 61.8854 655.781 62.0938 655.656 62.4688C655.552 62.8438 655.375 63.3333 655.125 63.9375C653.146 68.4167 649.938 71.6354 645.5 73.5938C642.833 74.7604 639.875 75.3229 636.625 75.2812C633.396 75.2604 630.365 74.7083 627.531 73.625C624.719 72.5208 622.333 70.9792 620.375 69C616.292 64.9375 614.25 59.4792 614.25 52.625C614.25 43.8125 616.854 37.2292 622.062 32.875C626.458 29.2292 631.812 27.4062 638.125 27.4062Z" fill="white"/>
<path d="M710.237 48.2278C709.258 49.2016 709.254 50.7845 710.228 51.7633L726.097 67.7134C727.071 68.6922 728.654 68.6962 729.633 67.7224C730.612 66.7485 730.616 65.1656 729.642 64.1868L715.536 50.009L729.713 35.9027C730.692 34.9288 730.696 33.3459 729.722 32.3671C728.749 31.3884 727.166 31.3844 726.187 32.3582L710.237 48.2278ZM1107.01 48.5L712.006 47.5L711.994 52.5L1106.99 53.5L1107.01 48.5Z" fill="white"/>
<path d="M476.763 47.2278C477.742 48.2016 477.746 49.7845 476.772 50.7633L460.903 66.7134C459.929 67.6922 458.346 67.6962 457.367 66.7224C456.388 65.7485 456.384 64.1656 457.358 63.1868L471.464 49.009L457.287 34.9027C456.308 33.9288 456.304 32.3459 457.278 31.3671C458.251 30.3884 459.834 30.3844 460.813 31.3582L476.763 47.2278ZM79.9937 47.5L474.994 46.5L475.006 51.5L80.0063 52.5L79.9937 47.5Z" fill="white"/>
<defs>
<linearGradient id="paint0_linear" x1="0" y1="300" x2="1200" y2="300" gradientUnits="userSpaceOnUse">
<stop stop-color="#11998E"/>
<stop offset="1" stop-color="#38EF7D"/>
</linearGradient>
</defs>
</svg>
